<svg xmlns="http://www.w3.org/2000/svg" viewBox="0 0 640 420" role="img" aria-labelledby="title desc">
  <title id="title">Apartment listing placeholder</title>
  <desc id="desc">Illustration of an apartment building for listings without preview images.</desc>
  <rect width="640" height="420" fill="#f4f7f8"/>
  <rect x="178" y="78" width="284" height="278" rx="18" fill="#ffffff" stroke="#cbd8d3" stroke-width="8"/>
  <rect x="214" y="116" width="56" height="48" rx="8" fill="#dceee8"/>
  <rect x="292" y="116" width="56" height="48" rx="8" fill="#dceee8"/>
  <rect x="370" y="116" width="56" height="48" rx="8" fill="#dceee8"/>
  <rect x="214" y="190" width="56" height="48" rx="8" fill="#dceee8"/>
  <rect x="292" y="190" width="56" height="48" rx="8" fill="#dceee8"/>
  <rect x="370" y="190" width="56" height="48" rx="8" fill="#dceee8"/>
  <rect x="286" y="274" width="68" height="82" rx="10" fill="#1f3438"/>
  <path d="M148 356h344" stroke="#17a56b" stroke-width="12" stroke-linecap="round"/>
  <path d="M130 184c20-48 48-78 88-92m292 98c-24-52-58-86-108-104" stroke="#17a56b" stroke-width="10" stroke-linecap="round" opacity=".55"/>
  <text x="320" y="390" text-anchor="middle" font-family="Arial, Helvetica, sans-serif" font-size="26" font-weight="700" fill="#1f3438">Apartment</text>
</svg>
